<svg width="1214" height="656" viewBox="0 0 1214 656" fill="none" xmlns="http://www.w3.org/2000/svg">
<rect y="90" width="382" height="566" rx="5" fill="#EEECEC"/>
<rect x="24" y="111" width="153" height="38" rx="5" fill="white"/>
<rect x="24" y="178" width="331" height="83" rx="5" fill="white"/>
<rect x="38" y="195" width="153" height="33" rx="5" fill="#EEECEC"/>
<rect x="24" y="290" width="331" height="83" rx="5" fill="white"/>
<rect x="38" y="307" width="153" height="33" rx="5" fill="#EEECEC"/>
<rect x="26" y="402" width="331" height="229" rx="5" fill="white"/>
<rect x="48" y="575" width="282" height="33" rx="5" fill="#EEECEC"/>
<rect x="832" y="90" width="382" height="566" rx="5" fill="#EEECEC"/>
<rect x="856" y="111" width="153" height="38" rx="5" fill="white"/>
<rect x="856" y="178" width="331" height="229" rx="5" fill="white"/>
<rect x="878" y="351" width="282" height="33" rx="5" fill="#EEECEC"/>
<rect x="416" y="90" width="382" height="312" rx="5" fill="#EEECEC"/>
<rect x="440" y="111" width="153" height="38" rx="5" fill="white"/>
<rect x="440" y="178" width="331" height="83" rx="5" fill="white"/>
<rect x="454" y="195" width="153" height="33" rx="5" fill="#EEECEC"/>
<rect x="440" y="290" width="331" height="83" rx="5" fill="white"/>
<rect x="454" y="307" width="153" height="33" rx="5" fill="#EEECEC"/>
<rect x="858" y="436" width="331" height="83" rx="5" fill="white"/>
<rect x="872" y="453" width="153" height="33" rx="5" fill="#EEECEC"/>
<rect x="858" y="548" width="331" height="83" rx="5" fill="white"/>
<rect x="872" y="565" width="153" height="33" rx="5" fill="#EEECEC"/>
<rect x="563" width="44" height="44" rx="4" fill="#EEECEC"/>
<rect x="571.5" y="8.5" width="12" height="28" rx="1.5" stroke="black" stroke-opacity="0.18"/>
<rect x="587.5" y="8.5" width="12" height="12" rx="1.5" stroke="black" stroke-opacity="0.18"/>
<rect x="587.5" y="24.5" width="12" height="12" rx="1.5" stroke="black" stroke-opacity="0.18"/>
</svg>
