<svg version="1.1" id="Layer_1" xmlns="http://www.w3.org/2000/svg" xmlns:xlink="http://www.w3.org/1999/xlink" x="0px" y="0px"
	 width="100%" viewBox="0 0 151 114" enable-background="new 0 0 151 114" xml:space="preserve">
<path fill="#5C5EF4" opacity="1.000000" stroke="none" 
	d="
M108.000000,115.000000 
	C72.000008,115.000000 36.500008,115.000000 1.000010,115.000000 
	C1.000006,77.000008 1.000006,39.000019 1.000003,1.000020 
	C51.333317,1.000013 101.666634,1.000013 151.999969,1.000007 
	C151.999969,38.999981 151.999969,76.999962 151.999985,114.999969 
	C137.500000,115.000000 123.000000,115.000000 108.000000,115.000000 
M64.193069,24.743082 
	C59.535294,24.745033 54.875359,24.658632 50.220325,24.772566 
	C45.055916,24.898968 42.814537,26.973892 42.786945,32.040443 
	C42.692730,49.340233 42.693394,66.641159 42.786243,83.940964 
	C42.813488,89.016937 45.047806,91.102615 50.201740,91.226295 
	C55.023094,91.342010 59.850517,91.319344 64.673187,91.236435 
	C70.505981,91.136162 72.710205,88.938576 72.735313,82.921074 
	C72.804726,66.286430 72.803848,49.651119 72.734711,33.016476 
	C72.710861,27.279320 70.908592,25.471830 64.193069,24.743082 
M79.809410,50.277809 
	C82.014000,51.766472 84.096092,54.251827 86.448112,54.540878 
	C91.701355,55.186478 97.096214,54.903603 102.420029,54.680401 
	C106.694305,54.501205 109.187134,52.104061 109.235802,47.658802 
	C109.294182,42.326244 109.315926,36.991665 109.235909,31.659721 
	C109.169670,27.245663 106.821289,24.844500 102.396103,24.768005 
	C97.064537,24.675846 91.729843,24.714201 86.397049,24.759775 
	C81.960426,24.797691 79.460243,27.245092 79.335548,31.523808 
	C79.161186,37.506962 79.444672,43.503460 79.809410,50.277809 
M109.193687,85.424812 
	C109.213760,79.784554 109.268776,74.144135 109.243042,68.504082 
	C109.221725,63.831806 106.628883,61.444698 102.136276,61.293381 
	C96.998924,61.120346 91.846672,61.113506 86.709587,61.288982 
	C81.859856,61.454639 79.443192,63.919369 79.282562,68.809959 
	C79.119270,73.781937 79.123322,78.767090 79.276093,83.739647 
	C79.431656,88.802979 81.685364,91.092476 86.605423,91.225090 
	C91.744957,91.363632 96.891022,91.253250 102.034203,91.264763 
	C105.591934,91.272728 108.100021,89.833443 109.193687,85.424812 
z"/>
<path fill="#FCFCFF" opacity="1.000000" stroke="none" 
	d="
M64.651489,24.746197 
	C70.908592,25.471830 72.710861,27.279320 72.734711,33.016476 
	C72.803848,49.651119 72.804726,66.286430 72.735313,82.921074 
	C72.710205,88.938576 70.505981,91.136162 64.673187,91.236435 
	C59.850517,91.319344 55.023094,91.342010 50.201740,91.226295 
	C45.047806,91.102615 42.813488,89.016937 42.786243,83.940964 
	C42.693394,66.641159 42.692730,49.340233 42.786945,32.040443 
	C42.814537,26.973892 45.055916,24.898968 50.220325,24.772566 
	C54.875359,24.658632 59.535294,24.745033 64.651489,24.746197 
M65.989655,40.545361 
	C65.989655,37.460815 65.989655,34.376270 65.989655,31.264423 
	C60.016560,31.264423 54.770908,31.264423 49.286137,31.264423 
	C49.286137,49.183624 49.286137,66.848457 49.286137,84.645523 
	C54.928955,84.645523 60.292244,84.645523 65.989655,84.645523 
	C65.989655,70.046432 65.989655,55.788979 65.989655,40.545361 
z"/>
<path fill="#FAFAFF" opacity="1.000000" stroke="none" 
	d="
M79.670837,49.886032 
	C79.444672,43.503460 79.161186,37.506962 79.335548,31.523808 
	C79.460243,27.245092 81.960426,24.797691 86.397049,24.759775 
	C91.729843,24.714201 97.064537,24.675846 102.396103,24.768005 
	C106.821289,24.844500 109.169670,27.245663 109.235909,31.659721 
	C109.315926,36.991665 109.294182,42.326244 109.235802,47.658802 
	C109.187134,52.104061 106.694305,54.501205 102.420029,54.680401 
	C97.096214,54.903603 91.701355,55.186478 86.448112,54.540878 
	C84.096092,54.251827 82.014000,51.766472 79.670837,49.886032 
M99.289574,31.015808 
	C95.033188,31.015808 90.776802,31.015808 86.316208,31.015808 
	C86.316208,36.870121 86.316208,42.215633 86.316208,47.636269 
	C91.970398,47.636269 97.315567,47.636269 102.979736,47.636269 
	C102.979736,42.847927 103.148361,38.394455 102.854851,33.971653 
	C102.786057,32.934959 101.153549,32.002041 99.289574,31.015808 
z"/>
<path fill="#FAFAFF" opacity="1.000000" stroke="none" 
	d="
M109.133301,85.829842 
	C108.100021,89.833443 105.591934,91.272728 102.034203,91.264763 
	C96.891022,91.253250 91.744957,91.363632 86.605423,91.225090 
	C81.685364,91.092476 79.431656,88.802979 79.276093,83.739647 
	C79.123322,78.767090 79.119270,73.781937 79.282562,68.809959 
	C79.443192,63.919369 81.859856,61.454639 86.709587,61.288982 
	C91.846672,61.113506 96.998924,61.120346 102.136276,61.293381 
	C106.628883,61.444698 109.221725,63.831806 109.243042,68.504082 
	C109.268776,74.144135 109.213760,79.784554 109.133301,85.829842 
M89.710426,84.984192 
	C93.966812,84.984192 98.223198,84.984192 102.683792,84.984192 
	C102.683792,79.129883 102.683792,73.784378 102.683792,68.363731 
	C97.030693,68.363731 91.683517,68.363731 86.020264,68.363731 
	C86.020264,73.152077 85.851646,77.605560 86.145157,82.028366 
	C86.213943,83.065056 87.846451,83.997971 89.710426,84.984192 
z"/>
<path fill="#5B5DF4" opacity="1.000000" stroke="none" 
	d="
M65.989655,41.038445 
	C65.989655,55.788979 65.989655,70.046432 65.989655,84.645523 
	C60.292244,84.645523 54.928955,84.645523 49.286137,84.645523 
	C49.286137,66.848457 49.286137,49.183624 49.286137,31.264423 
	C54.770908,31.264423 60.016560,31.264423 65.989655,31.264423 
	C65.989655,34.376270 65.989655,37.460815 65.989655,41.038445 
z"/>
<path fill="#5B5DF4" opacity="1.000000" stroke="none" 
	d="
M99.765015,31.018593 
	C101.153549,32.002041 102.786057,32.934959 102.854851,33.971653 
	C103.148361,38.394455 102.979736,42.847927 102.979736,47.636269 
	C97.315567,47.636269 91.970398,47.636269 86.316208,47.636269 
	C86.316208,42.215633 86.316208,36.870121 86.316208,31.015808 
	C90.776802,31.015808 95.033188,31.015808 99.765015,31.018593 
z"/>
<path fill="#5B5DF4" opacity="1.000000" stroke="none" 
	d="
M89.234985,84.981407 
	C87.846451,83.997971 86.213943,83.065056 86.145157,82.028366 
	C85.851646,77.605560 86.020264,73.152077 86.020264,68.363731 
	C91.683517,68.363731 97.030693,68.363731 102.683792,68.363731 
	C102.683792,73.784378 102.683792,79.129883 102.683792,84.984192 
	C98.223198,84.984192 93.966812,84.984192 89.234985,84.981407 
z"/>
</svg>